<svg width="161" height="39" viewBox="0 0 161 39" fill="none" xmlns="http://www.w3.org/2000/svg">
<g filter="url(#filter0_dd_56006_230)">
<g filter="url(#filter1_dd_56006_230)">
<g clip-path="url(#clip0_56006_230)">
<rect x="4" y="2" width="32" height="32" rx="8" fill="white"/>
<rect x="4" y="2" width="32" height="32" rx="8" fill="url(#paint0_linear_56006_230)"/>
<path d="M15.3527 14.9361C16.809 14.7209 17.889 13.5677 18.0534 12.19C18.2202 10.789 18.5965 5.15875 16.1658 5.51689C9.86075 6.44675 10.3033 15.6806 15.3527 14.9361ZM23.6484 14.9361C28.6966 15.6806 29.1391 6.44675 22.8341 5.51635C20.404 5.15821 20.7797 10.7884 20.9459 12.1895C21.1109 13.5677 22.1922 14.7209 23.6484 14.9361ZM12.7627 19.2865C12.7627 18.5539 12.462 17.8898 11.9777 17.4067C11.1808 16.5013 8.6476 14.6703 8.02572 15.1393C6.72758 16.1208 6.76945 18.5365 7.55134 20.2919C7.95322 21.2679 8.92386 21.9543 10.0582 21.9543C11.5514 21.9543 12.7627 20.7598 12.7627 19.2865ZM30.9736 15.1393C30.3529 14.6703 27.8198 16.5013 27.0229 17.4067C26.5385 17.8898 26.2372 18.5539 26.2372 19.2865C26.2372 20.7598 27.4497 21.9543 28.9416 21.9543C30.0767 21.9543 31.0479 21.2679 31.4498 20.2919C32.2298 18.5365 32.2729 16.1208 30.9736 15.1393ZM25.8885 23.4417C23.5909 22.4456 23.6622 20.5272 23.1397 18.7767C22.7241 17.3806 21.2522 16.348 19.5003 16.348C17.7859 16.348 16.3396 17.3376 15.8883 18.6914C15.3289 20.3663 15.6658 22.3162 13.1614 23.4287C11.127 24.0053 10.3033 24.8466 10.3033 26.8362C10.3033 28.4524 11.8989 30.1828 13.9583 30.398C16.2558 30.6991 18.0484 30.3056 19.5003 29.5861C20.9522 30.3056 22.7434 30.6985 25.0447 30.398C27.1029 30.1828 28.6991 28.4589 28.6991 26.8362C28.6985 24.8031 27.9273 24.0455 25.8885 23.4417ZM23.1778 25.8732H20.7959L20.799 28.047H18.2015L18.2052 25.8732H15.6777V23.6993H18.2059L18.2021 21.5255H20.7997L20.7965 23.6993H23.1778V25.8732Z" fill="#00A482" stroke="#00A482" stroke-width="1.28"/>
</g>
<rect x="4.1" y="2.1" width="31.8" height="31.8" rx="7.9" stroke="#D0D5DD" stroke-width="0.2"/>
</g>
</g>
<path d="M48.504 28L42.264 10.12H45.816L50.712 24.928H50.016L54.912 10.12H58.464L52.248 28H48.504ZM65.1951 28.288C63.8511 28.288 62.6751 27.984 61.6671 27.376C60.6591 26.768 59.8751 25.944 59.3151 24.904C58.7551 23.864 58.4751 22.712 58.4751 21.448C58.4751 20.136 58.7551 18.976 59.3151 17.968C59.8911 16.944 60.6671 16.136 61.6431 15.544C62.6351 14.952 63.7391 14.656 64.9551 14.656C65.9791 14.656 66.8751 14.824 67.6431 15.16C68.4271 15.496 69.0911 15.96 69.6351 16.552C70.1791 17.144 70.5951 17.824 70.8831 18.592C71.1711 19.344 71.3151 20.16 71.3151 21.04C71.3151 21.264 71.2991 21.496 71.2671 21.736C71.2511 21.976 71.2111 22.184 71.1471 22.36H61.0671V19.96H69.3711L67.8831 21.088C68.0271 20.352 67.9871 19.696 67.7631 19.12C67.5551 18.544 67.2031 18.088 66.7071 17.752C66.2271 17.416 65.6431 17.248 64.9551 17.248C64.2991 17.248 63.7151 17.416 63.2031 17.752C62.6911 18.072 62.2991 18.552 62.0271 19.192C61.7711 19.816 61.6751 20.576 61.7391 21.472C61.6751 22.272 61.7791 22.984 62.0511 23.608C62.3391 24.216 62.7551 24.688 63.2991 25.024C63.8591 25.36 64.4991 25.528 65.2191 25.528C65.9391 25.528 66.5471 25.376 67.0431 25.072C67.5551 24.768 67.9551 24.36 68.2431 23.848L70.7871 25.096C70.5311 25.72 70.1311 26.272 69.5871 26.752C69.0431 27.232 68.3951 27.608 67.6431 27.88C66.9071 28.152 66.0911 28.288 65.1951 28.288ZM79.6504 28.144C78.1784 28.144 77.0344 27.744 76.2184 26.944C75.4184 26.128 75.0184 24.984 75.0184 23.512V17.752H72.7624V14.944H73.0024C73.6424 14.944 74.1384 14.776 74.4904 14.44C74.8424 14.104 75.0184 13.616 75.0184 12.976V11.968H78.1624V14.944H81.1624V17.752H78.1624V23.344C78.1624 23.776 78.2344 24.144 78.3784 24.448C78.5384 24.752 78.7784 24.984 79.0984 25.144C79.4344 25.304 79.8584 25.384 80.3704 25.384C80.4824 25.384 80.6104 25.376 80.7544 25.36C80.9144 25.344 81.0664 25.328 81.2104 25.312V28C80.9864 28.032 80.7304 28.064 80.4424 28.096C80.1544 28.128 79.8904 28.144 79.6504 28.144ZM92.2764 28.288C90.9964 28.288 89.8124 28.056 88.7244 27.592C87.6524 27.128 86.7084 26.48 85.8924 25.648C85.0924 24.816 84.4684 23.84 84.0204 22.72C83.5724 21.6 83.3484 20.376 83.3484 19.048C83.3484 17.72 83.5644 16.496 83.9964 15.376C84.4444 14.24 85.0684 13.264 85.8684 12.448C86.6844 11.616 87.6364 10.976 88.7244 10.528C89.8124 10.064 90.9964 9.832 92.2764 9.832C93.5564 9.832 94.7004 10.048 95.7084 10.48C96.7324 10.912 97.5964 11.488 98.3004 12.208C99.0044 12.912 99.5084 13.688 99.8124 14.536L96.8844 15.904C96.5484 15.008 95.9804 14.272 95.1804 13.696C94.3804 13.104 93.4124 12.808 92.2764 12.808C91.1564 12.808 90.1644 13.072 89.3004 13.6C88.4524 14.128 87.7884 14.856 87.3084 15.784C86.8444 16.712 86.6124 17.8 86.6124 19.048C86.6124 20.296 86.8444 21.392 87.3084 22.336C87.7884 23.264 88.4524 23.992 89.3004 24.52C90.1644 25.048 91.1564 25.312 92.2764 25.312C93.4124 25.312 94.3804 25.024 95.1804 24.448C95.9804 23.856 96.5484 23.112 96.8844 22.216L99.8124 23.584C99.5084 24.432 99.0044 25.216 98.3004 25.936C97.5964 26.64 96.7324 27.208 95.7084 27.64C94.7004 28.072 93.5564 28.288 92.2764 28.288ZM105.924 28.288C105.012 28.288 104.22 28.136 103.548 27.832C102.876 27.528 102.356 27.096 101.988 26.536C101.62 25.96 101.436 25.296 101.436 24.544C101.436 23.824 101.596 23.184 101.916 22.624C102.236 22.048 102.732 21.568 103.404 21.184C104.076 20.8 104.924 20.528 105.948 20.368L110.22 19.672V22.072L106.548 22.696C105.924 22.808 105.46 23.008 105.156 23.296C104.852 23.584 104.7 23.96 104.7 24.424C104.7 24.872 104.868 25.232 105.204 25.504C105.556 25.76 105.988 25.888 106.5 25.888C107.156 25.888 107.732 25.752 108.228 25.48C108.74 25.192 109.132 24.8 109.404 24.304C109.692 23.808 109.836 23.264 109.836 22.672V19.312C109.836 18.752 109.612 18.288 109.164 17.92C108.732 17.536 108.156 17.344 107.436 17.344C106.764 17.344 106.164 17.528 105.636 17.896C105.124 18.248 104.748 18.72 104.508 19.312L101.94 18.064C102.196 17.376 102.596 16.784 103.14 16.288C103.7 15.776 104.356 15.376 105.108 15.088C105.86 14.8 106.676 14.656 107.556 14.656C108.628 14.656 109.572 14.856 110.388 15.256C111.204 15.64 111.836 16.184 112.284 16.888C112.748 17.576 112.98 18.384 112.98 19.312V28H110.004V25.768L110.676 25.72C110.34 26.28 109.94 26.752 109.476 27.136C109.012 27.504 108.484 27.792 107.892 28C107.3 28.192 106.644 28.288 105.924 28.288ZM115.886 28V14.944H118.838V17.848L118.598 17.416C118.902 16.44 119.374 15.76 120.014 15.376C120.67 14.992 121.454 14.8 122.366 14.8H123.134V17.584H122.006C121.11 17.584 120.39 17.864 119.846 18.424C119.302 18.968 119.03 19.736 119.03 20.728V28H115.886ZM131.054 28.288C129.71 28.288 128.534 27.984 127.526 27.376C126.518 26.768 125.734 25.944 125.174 24.904C124.614 23.864 124.334 22.712 124.334 21.448C124.334 20.136 124.614 18.976 125.174 17.968C125.75 16.944 126.526 16.136 127.502 15.544C128.494 14.952 129.598 14.656 130.814 14.656C131.838 14.656 132.734 14.824 133.502 15.16C134.286 15.496 134.95 15.96 135.494 16.552C136.038 17.144 136.454 17.824 136.742 18.592C137.03 19.344 137.174 20.16 137.174 21.04C137.174 21.264 137.158 21.496 137.126 21.736C137.11 21.976 137.07 22.184 137.006 22.36H126.926V19.96H135.23L133.742 21.088C133.886 20.352 133.846 19.696 133.622 19.12C133.414 18.544 133.062 18.088 132.566 17.752C132.086 17.416 131.502 17.248 130.814 17.248C130.158 17.248 129.574 17.416 129.062 17.752C128.55 18.072 128.158 18.552 127.886 19.192C127.63 19.816 127.534 20.576 127.598 21.472C127.534 22.272 127.638 22.984 127.91 23.608C128.198 24.216 128.614 24.688 129.158 25.024C129.718 25.36 130.358 25.528 131.078 25.528C131.798 25.528 132.406 25.376 132.902 25.072C133.414 24.768 133.814 24.36 134.102 23.848L136.646 25.096C136.39 25.72 135.99 26.272 135.446 26.752C134.902 27.232 134.254 27.608 133.502 27.88C132.766 28.152 131.95 28.288 131.054 28.288Z" fill="white"/>
<defs>
<filter id="filter0_dd_56006_230" x="1" y="0" width="44" height="39" filterUnits="userSpaceOnUse" color-interpolation-filters="sRGB">
<feFlood flood-opacity="0" result="BackgroundImageFix"/>
<feColorMatrix in="SourceAlpha" type="matrix" values="0 0 0 0 0 0 0 0 0 0 0 0 0 0 0 0 0 0 127 0" result="hardAlpha"/>
<feOffset dy="1"/>
<feGaussianBlur stdDeviation="1"/>
<feColorMatrix type="matrix" values="0 0 0 0 0.0627451 0 0 0 0 0.0941176 0 0 0 0 0.156863 0 0 0 0.06 0"/>
<feBlend mode="normal" in2="BackgroundImageFix" result="effect1_dropShadow_56006_230"/>
<feColorMatrix in="SourceAlpha" type="matrix" values="0 0 0 0 0 0 0 0 0 0 0 0 0 0 0 0 0 0 127 0" result="hardAlpha"/>
<feOffset dy="1"/>
<feGaussianBlur stdDeviation="1.5"/>
<feColorMatrix type="matrix" values="0 0 0 0 0.0627451 0 0 0 0 0.0941176 0 0 0 0 0.156863 0 0 0 0.1 0"/>
<feBlend mode="normal" in2="effect1_dropShadow_56006_230" result="effect2_dropShadow_56006_230"/>
<feBlend mode="normal" in="SourceGraphic" in2="effect2_dropShadow_56006_230" result="shape"/>
</filter>
<filter id="filter1_dd_56006_230" x="1" y="0" width="44" height="39" filterUnits="userSpaceOnUse" color-interpolation-filters="sRGB">
<feFlood flood-opacity="0" result="BackgroundImageFix"/>
<feColorMatrix in="SourceAlpha" type="matrix" values="0 0 0 0 0 0 0 0 0 0 0 0 0 0 0 0 0 0 127 0" result="hardAlpha"/>
<feOffset dy="1"/>
<feGaussianBlur stdDeviation="1"/>
<feColorMatrix type="matrix" values="0 0 0 0 0.0627451 0 0 0 0 0.0941176 0 0 0 0 0.156863 0 0 0 0.06 0"/>
<feBlend mode="normal" in2="BackgroundImageFix" result="effect1_dropShadow_56006_230"/>
<feColorMatrix in="SourceAlpha" type="matrix" values="0 0 0 0 0 0 0 0 0 0 0 0 0 0 0 0 0 0 127 0" result="hardAlpha"/>
<feOffset dy="1"/>
<feGaussianBlur stdDeviation="1.5"/>
<feColorMatrix type="matrix" values="0 0 0 0 0.0627451 0 0 0 0 0.0941176 0 0 0 0 0.156863 0 0 0 0.1 0"/>
<feBlend mode="normal" in2="effect1_dropShadow_56006_230" result="effect2_dropShadow_56006_230"/>
<feBlend mode="normal" in="SourceGraphic" in2="effect2_dropShadow_56006_230" result="shape"/>
</filter>
<linearGradient id="paint0_linear_56006_230" x1="20" y1="2" x2="20" y2="34" gradientUnits="userSpaceOnUse">
<stop stop-color="white"/>
<stop offset="1" stop-color="#D0D5DD"/>
</linearGradient>
<clipPath id="clip0_56006_230">
<rect x="4" y="2" width="32" height="32" rx="8" fill="white"/>
</clipPath>
</defs>
</svg>
